<?xml version="1.0" encoding="UTF-8"?>
<svg version="1.1" xmlns="http://www.w3.org/2000/svg" width="1237" height="1600">
<path d="M0 0 C5.43981903 -0.08765175 10.87075403 -0.05274908 16.31005859 0.05029297 C17.62925293 0.06914551 17.62925293 0.06914551 18.97509766 0.08837891 C51.29706643 0.6384923 82.77837698 6.51499461 113.31005859 17.05029297 C114.39287109 17.42226807 114.39287109 17.42226807 115.49755859 17.80175781 C133.24138679 23.96853025 150.51488193 31.46981128 167.80224609 38.80029297 C211.41592026 57.25050093 253.89790037 65.84742323 299.56420898 47.74047852 C301.33659728 47.00276107 303.10079509 46.2454632 304.86474609 45.48779297 C308.5298447 43.95859083 312.21968181 42.70076314 315.99755859 41.48779297 C321.4054128 39.72424093 326.61121639 37.73238492 331.83740234 35.49560547 C344.81698337 30.09353013 358.06957316 25.29773252 371.36181641 20.72509766 C373.231642 20.0774538 375.09523843 19.4119096 376.95849609 18.74560547 C387.56687904 15.04072553 398.34541294 12.46090669 409.31005859 10.05029297 C410.25606934 9.83872559 411.20208008 9.6271582 412.17675781 9.40917969 C439.70421416 3.31813541 467.1394837 0.39038039 495.31005859 0.05029297 C496.6686499 0.02757324 496.6686499 0.02757324 498.0546875 0.00439453 C503.80962425 -0.08686534 509.55550181 -0.04821884 515.31005859 0.05029297 C516.3172998 0.06286133 517.32454102 0.07542969 518.36230469 0.08837891 C544.20169669 0.46627182 570.13252278 3.06032491 595.31005859 9.05029297 C596.32841797 9.29118652 597.34677734 9.53208008 598.39599609 9.78027344 C620.34017615 15.05010374 641.6712512 21.88972825 662.31005859 31.05029297 C663.50332764 31.57913086 663.50332764 31.57913086 664.72070312 32.11865234 C690.3874373 43.62733269 713.46255309 58.81566835 735.73779297 75.86279297 C737.05840748 76.86022604 738.40779254 77.81940593 739.76318359 78.76904297 C740.27365234 79.19185547 740.78412109 79.61466797 741.31005859 80.05029297 C741.31005859 80.71029297 741.31005859 81.37029297 741.31005859 82.05029297 C742.14537109 82.40800781 742.14537109 82.40800781 742.99755859 82.77294922 C745.83302613 84.33916186 747.93728838 86.28502306 750.31005859 88.48779297 C753.83887222 91.75462379 753.83887222 91.75462379 757.62255859 94.71044922 C758.45787109 95.37367188 758.45787109 95.37367188 759.31005859 96.05029297 C759.31005859 96.71029297 759.31005859 97.37029297 759.31005859 98.05029297 C760.30005859 98.38029297 761.29005859 98.71029297 762.31005859 99.05029297 C762.31005859 99.71029297 762.31005859 100.37029297 762.31005859 101.05029297 C763.63005859 101.71029297 764.95005859 102.37029297 766.31005859 103.05029297 C766.31005859 103.71029297 766.31005859 104.37029297 766.31005859 105.05029297 C767.30005859 105.38029297 768.29005859 105.71029297 769.31005859 106.05029297 C769.31005859 106.71029297 769.31005859 107.37029297 769.31005859 108.05029297 C770.63005859 108.71029297 771.95005859 109.37029297 773.31005859 110.05029297 C773.31005859 110.71029297 773.31005859 111.37029297 773.31005859 112.05029297 C774.30005859 112.38029297 775.29005859 112.71029297 776.31005859 113.05029297 C777.74755859 114.44091797 777.74755859 114.44091797 779.31005859 116.30029297 C779.91333984 117.01185547 780.51662109 117.72341797 781.13818359 118.45654297 C781.85490234 119.31248047 782.57162109 120.16841797 783.31005859 121.05029297 C784.24146517 122.14479679 785.17381559 123.23849786 786.10693359 124.33154297 C794.46674187 134.14547134 794.46674187 134.14547134 797.31005859 138.05029297 C795.91674572 141.35974533 794.4404179 142.98462678 791.52099609 145.04638672 C790.75207031 145.59842773 789.98314453 146.15046875 789.19091797 146.71923828 C787.95051758 147.59467285 787.95051758 147.59467285 786.68505859 148.48779297 C774.46535867 157.30283807 762.76487234 166.59253009 751.70849609 176.83544922 C749.48517253 178.88858352 747.22449111 180.88400836 744.93505859 182.86279297 C742.6660645 184.82491491 740.51321708 186.82505826 738.43505859 188.98779297 C736.31005859 191.05029297 736.31005859 191.05029297 734.31005859 191.05029297 C733.98005859 192.04029297 733.65005859 193.03029297 733.31005859 194.05029297 C732.65005859 194.05029297 731.99005859 194.05029297 731.31005859 194.05029297 C731.08447266 194.60587891 730.85888672 195.16146484 730.62646484 195.73388672 C728.92111445 198.73469616 726.74299543 200.72966834 724.24755859 203.11279297 C719.67361205 207.56832503 715.55226334 212.21976187 711.57177734 217.22216797 C709.974092 219.2199645 708.36286312 221.1826781 706.70458984 223.12841797 C701.12436101 229.67979324 701.12436101 229.67979324 696.31005859 236.80029297 C695.65005859 237.87279297 694.99005859 238.94529297 694.31005859 240.05029297 C693.65005859 240.05029297 692.99005859 240.05029297 692.31005859 240.05029297 C692.05095703 240.76958984 691.79185547 241.48888672 691.52490234 242.22998047 C690.25054809 245.18844919 688.72077195 247.53937953 686.87255859 250.17529297 C677.68529825 263.76443486 669.94128117 278.05876856 663.31005859 293.05029297 C663.02791504 293.68338379 662.74577148 294.31647461 662.45507812 294.96875 C655.4197187 310.81800108 649.9922594 326.98700952 646.24755859 343.92529297 C645.99079346 345.08279053 645.73402832 346.24028809 645.46948242 347.43286133 C643.25160366 357.74469461 641.7005759 368.08871996 640.57617188 378.57324219 C640.40684051 380.14942201 640.2243629 381.72428592 640.02441406 383.296875 C639.0176875 391.76670511 639.06626597 400.28304281 639.06005859 408.80029297 C639.05938385 409.63499115 639.05870911 410.46968933 639.05801392 411.3296814 C639.08944091 435.99810877 641.72445307 459.99725083 647.31005859 484.05029297 C647.47618652 484.77168457 647.64231445 485.49307617 647.81347656 486.23632812 C652.91405272 507.88544025 660.72825588 529.23423049 671.48193359 548.70654297 C672.9754714 551.43831298 674.35399425 554.1756852 675.68505859 556.98779297 C686.43013901 578.58504763 702.35145522 597.60071914 718.72802734 615.12451172 C720.31005859 617.05029297 720.31005859 617.05029297 720.31005859 619.05029297 C721.30005859 619.38029297 722.29005859 619.71029297 723.31005859 620.05029297 C723.31005859 620.71029297 723.31005859 621.37029297 723.31005859 622.05029297 C724.63005859 622.71029297 725.95005859 623.37029297 727.31005859 624.05029297 C727.31005859 624.71029297 727.31005859 625.37029297 727.31005859 626.05029297 C727.89658203 626.30681641 728.48310547 626.56333984 729.08740234 626.82763672 C731.51318789 628.16203193 732.9853456 629.59514625 734.87255859 631.61279297 C739.68121666 636.53636382 744.9363963 640.76221902 750.31005859 645.05029297 C751.44632395 645.97633593 752.58170599 646.90346353 753.71630859 647.83154297 C768.17563605 659.60965765 783.15185355 670.29490476 799.20214844 679.79785156 C801.19061178 680.97932214 803.16814353 682.17679416 805.14208984 683.38232422 C814.71336632 689.21331978 824.48527596 694.65960467 834.31005859 700.05029297 C833.74255276 705.14479937 832.61012455 709.42151207 830.74755859 714.23779297 C830.48289795 714.92502441 830.2182373 715.61225586 829.94555664 716.3203125 C829.07594168 718.56721495 828.19397023 720.80897972 827.31005859 723.05029297 C827.01711914 723.79972168 826.72417969 724.54915039 826.42236328 725.32128906 C822.30762215 735.83550029 817.99970739 746.26784864 813.62255859 756.67529297 C812.94543823 758.29250244 812.94543823 758.29250244 812.25463867 759.94238281 C809.82749997 765.67974167 807.24844576 771.28296693 804.41796875 776.83203125 C802.91148585 779.84831677 801.62238125 782.9452749 800.31005859 786.05029297 C792.88496161 802.32269804 785.07365173 818.57590409 775.66552734 833.80810547 C774.15433313 836.30789071 772.75978861 838.85473027 771.37255859 841.42529297 C762.86128717 857.15025179 753.30174778 872.23179153 743.31005859 887.05029297 C741.55721778 889.67340147 739.80872496 892.2994004 738.06005859 894.92529297 C736.85557569 896.73225258 735.65111771 898.53914836 734.44091797 900.34228516 C733.67775093 901.49494419 732.92928928 902.65745665 732.19482422 903.82861328 C731.28234612 905.26816976 730.30191661 906.66423497 729.31005859 908.05029297 C728.65005859 908.05029297 727.99005859 908.05029297 727.31005859 908.05029297 C727.07673828 908.74767578 726.84341797 909.44505859 726.60302734 910.16357422 C725.0657749 913.59568767 722.95914767 916.32880921 720.62255859 919.23779297 C716.75652267 924.13276117 713.12844271 929.11336122 709.68505859 934.31982422 C709.23130859 934.89087891 708.77755859 935.46193359 708.31005859 936.05029297 C707.65005859 936.05029297 706.99005859 936.05029297 706.31005859 936.05029297 C706.04966797 936.62005859 705.78927734 937.18982422 705.52099609 937.77685547 C698.74029722 950.50707078 686.28246721 961.97600069 676.55615234 972.58935547 C672.3113004 977.24023672 668.19913538 982.00192828 664.12255859 986.80029297 C661.95080811 989.3311062 659.8022606 991.82511261 657.31005859 994.05029297 C656.65005859 994.05029297 655.99005859 994.05029297 655.31005859 994.05029297 C654.98005859 995.04029297 654.65005859 996.03029297 654.31005859 997.05029297 C652.37255859 999.23779297 652.37255859 999.23779297 650.31005859 1001.05029297 C649.65005859 1001.05029297 648.99005859 1001.05029297 648.31005859 1001.05029297 C647.98005859 1002.04029297 647.65005859 1003.03029297 647.31005859 1004.05029297 C645.88427734 1005.48779297 645.88427734 1005.48779297 643.99755859 1007.05029297 C640.86099307 1009.70170627 637.81444702 1012.41789113 634.81152344 1015.21777344 C627.31042939 1022.20833408 627.31042939 1022.20833408 623.37255859 1024.92529297 C620.30228039 1026.91358776 620.30228039 1026.91358776 618.04833984 1029.35888672 C615.02924778 1032.32629675 611.86085802 1034.76741542 608.43505859 1037.23779297 C607.78013428 1037.71265137 607.12520996 1038.18750977 606.45043945 1038.67675781 C567.27843527 1066.88884066 524.75266754 1086.17130219 475.45751953 1078.61010742 C439.77143695 1072.52149802 405.82464936 1060.70084916 372.34277344 1047.25341797 C365.79528484 1044.65592773 359.17101089 1042.2683535 352.54882812 1039.86962891 C350.20142126 1039.01053431 347.86270415 1038.13048541 345.52490234 1037.24560547 C298.22153625 1019.39419909 245.60693623 1016.78243522 196.31005859 1028.05029297 C195.62137695 1028.20755859 194.93269531 1028.36482422 194.22314453 1028.52685547 C189.55975795 1029.61061641 184.93402428 1030.81230494 180.31005859 1032.05029297 C179.20549316 1032.33912354 179.20549316 1032.33912354 178.07861328 1032.63378906 C166.22518901 1035.75428343 154.66395055 1039.56887428 143.12255859 1043.67529297 C142.12807205 1044.02891403 142.12807205 1044.02891403 141.11349487 1044.38967896 C130.86055639 1048.04679728 120.75915058 1051.95377638 110.77758789 1056.29736328 C58.46447992 1079.05718613 2.49994223 1089.91740372 -52.41503906 1068.953125 C-75.68153313 1059.71943804 -97.10706749 1045.63947743 -116.44384766 1029.85888672 C-119.16437102 1027.66827399 -121.96638759 1025.60668411 -124.80322266 1023.56982422 C-127.28671147 1021.56966449 -129.44288564 1019.31412223 -131.68994141 1017.05029297 C-132.69810229 1016.04583638 -133.70708932 1015.04220846 -134.71679688 1014.03930664 C-137.69546285 1011.07852393 -140.67100837 1008.11462643 -143.64550781 1005.1496582 C-144.92064757 1003.87954635 -146.19668352 1002.61033358 -147.47363281 1001.34204102 C-163.71970114 985.2028823 -163.71970114 985.2028823 -166.68994141 981.05029297 C-166.68994141 980.39029297 -166.68994141 979.73029297 -166.68994141 979.05029297 C-167.34994141 979.05029297 -168.00994141 979.05029297 -168.68994141 979.05029297 C-170.5169979 976.89782935 -172.23884758 974.73649532 -173.93994141 972.48779297 C-174.9413657 971.18610316 -175.94395634 969.88530976 -176.94775391 968.58544922 C-177.42631836 967.96428223 -177.90488281 967.34311523 -178.39794922 966.703125 C-179.81440859 964.89106341 -181.28861025 963.14564927 -182.81494141 961.42529297 C-198.85032441 943.02775723 -212.7707089 921.72106497 -225.68994141 901.05029297 C-226.81321698 899.2783653 -227.93826017 897.5075571 -229.06494141 895.73779297 C-229.63857422 894.83416016 -230.21220703 893.93052734 -230.80322266 892.99951172 C-232.16562846 890.86987118 -233.53713768 888.74829976 -234.92041016 886.63232422 C-238.88097355 880.5594048 -242.63954589 874.48294419 -246.04150391 868.07373047 C-248.10803493 864.28345792 -250.30126175 860.57600764 -252.50244141 856.86279297 C-259.03228013 845.81854341 -265.4635344 834.75240951 -271.10400391 823.22216797 C-272.65252941 820.12511697 -274.26837854 817.07409944 -275.90551758 814.0234375 C-280.14654218 806.12007517 -284.07757852 798.12015479 -287.85009766 789.98388672 C-289.4421156 786.55638516 -291.10878433 783.17272293 -292.81494141 779.80029297 C-297.69286182 770.11019231 -302.07107886 760.25700316 -306.15234375 750.20996094 C-307.76323199 746.25547573 -309.4381923 742.35470213 -311.25244141 738.48779297 C-313.81019493 732.9487618 -315.91928999 727.26292465 -318.02587891 721.54248047 C-319.51594979 717.49748756 -321.05868228 713.47405855 -322.60791016 709.45141602 C-325.68142218 701.45925436 -328.66630252 693.44246429 -331.50244141 685.36279297 C-331.91901001 684.17991699 -331.91901001 684.17991699 -332.34399414 682.97314453 C-333.98747701 678.24607005 -335.483077 673.49073891 -336.90161133 668.69165039 C-337.73884438 665.88643999 -338.60931032 663.09315826 -339.48681641 660.30029297 C-347.46578634 634.82998542 -354.16130756 609.15822111 -359.68994141 583.05029297 C-359.8469754 582.31079407 -360.0040094 581.57129517 -360.165802 580.80938721 C-363.00472005 567.33174494 -365.2524555 553.8008298 -367.25244141 540.17529297 C-367.40401703 539.14716492 -367.55559265 538.11903687 -367.71176147 537.05975342 C-379.5513968 456.39487749 -380.48835492 372.728658 -361.68994141 293.05029297 C-361.53557617 292.38900391 -361.38121094 291.72771484 -361.22216797 291.04638672 C-349.8988546 242.88041102 -330.07438333 196.6272164 -301.68994141 156.05029297 C-301.01833984 155.08607422 -300.34673828 154.12185547 -299.65478516 153.12841797 C-297.70852516 150.40117466 -295.71321056 147.72100826 -293.68994141 145.05029297 C-293.18736816 144.38529785 -292.68479492 143.72030273 -292.16699219 143.03515625 C-284.75361922 133.25977354 -277.11246182 123.96825576 -268.68994141 115.05029297 C-267.12278058 113.3044656 -265.56007576 111.55462517 -264.00244141 109.80029297 C-255.3875125 100.22470652 -255.3875125 100.22470652 -251.68994141 97.05029297 C-251.02994141 97.05029297 -250.36994141 97.05029297 -249.68994141 97.05029297 C-249.19494141 95.56529297 -249.19494141 95.56529297 -248.68994141 94.05029297 C-246.58056641 92.18310547 -246.58056641 92.18310547 -243.93994141 90.17529297 C-241.20943396 88.09062411 -238.68176927 86.04210773 -236.25244141 83.60888672 C-233.47685951 80.83753589 -230.5288987 78.39327791 -227.43994141 75.98779297 C-226.53900757 75.28432739 -226.53900757 75.28432739 -225.61987305 74.56665039 C-214.11123838 65.66712984 -202.18724271 57.49477704 -189.68994141 50.05029297 C-188.47177734 49.28845703 -188.47177734 49.28845703 -187.22900391 48.51123047 C-180.38760482 44.26092605 -173.24485935 40.6563187 -165.99609375 37.1640625 C-164.44353156 36.41424366 -162.89441296 35.65725712 -161.34863281 34.89355469 C-128.70989245 18.83426727 -92.62337919 9.02972397 -56.68994141 4.05029297 C-55.66223633 3.9060791 -54.63453125 3.76186523 -53.57568359 3.61328125 C-35.73667575 1.17420435 -17.98818481 0.3363193 0 0 Z " fill="#000000" transform="translate(402.68994140625,348.94970703125)"/>
<path d="M0 0 C0.65197593 16.00115383 1.29612031 31.98430153 1 48 C0.98743164 48.87333984 0.97486328 49.74667969 0.96191406 50.64648438 C0.5826859 72.39405865 -2.3341483 93.99033163 -8 115 C-8.20850586 115.80034668 -8.41701172 116.60069336 -8.63183594 117.42529297 C-16.59445638 147.84851258 -30.24236692 175.57453702 -46.85791016 202.14160156 C-47.84373092 203.74572034 -48.77674553 205.38207136 -49.69921875 207.0234375 C-50.12847656 207.67570313 -50.55773437 208.32796875 -51 209 C-51.66 209 -52.32 209 -53 209 C-53.22429687 209.68707031 -53.44859375 210.37414062 -53.6796875 211.08203125 C-55.32478509 214.71779427 -57.62784078 217.6136511 -60.125 220.6875 C-60.61637451 221.30181885 -61.10774902 221.9161377 -61.61401367 222.54907227 C-62.60686405 223.78928645 -63.60219564 225.02751871 -64.60009766 226.26367188 C-66.51876231 228.64343173 -68.41321076 231.04226482 -70.3125 233.4375 C-71.53866008 234.96075841 -72.76761844 236.48177063 -74 238 C-74.57878906 238.71542969 -75.15757812 239.43085938 -75.75390625 240.16796875 C-77.12171246 241.81922395 -78.55424045 243.41654906 -80 245 C-80.66 245 -81.32 245 -82 245 C-82.24621094 245.57073242 -82.49242187 246.14146484 -82.74609375 246.72949219 C-84.20898997 249.3784281 -85.92645319 251.18548546 -88.0625 253.328125 C-88.85914063 254.12734375 -89.65578125 254.9265625 -90.4765625 255.75 C-91.72566406 256.9875 -91.72566406 256.9875 -93 258.25 C-93.83273437 259.09046875 -94.66546875 259.9309375 -95.5234375 260.796875 C-96.32007813 261.5909375 -97.11671875 262.385 -97.9375 263.203125 C-98.66839844 263.93176758 -99.39929688 264.66041016 -100.15234375 265.41113281 C-102 267 -102 267 -104 267 C-104.33 267.99 -104.66 268.98 -105 270 C-106.9765625 271.83984375 -106.9765625 271.83984375 -109.625 273.9375 C-110.62273437 274.7315625 -111.62046875 275.525625 -112.6484375 276.34375 C-113.19081055 276.77171875 -113.73318359 277.1996875 -114.29199219 277.640625 C-116.05621314 279.0447391 -117.79892938 280.47241825 -119.5390625 281.90625 C-133.14941454 293.06652137 -147.6895473 302.34929785 -163 311 C-163.68819824 311.39074707 -164.37639648 311.78149414 -165.08544922 312.18408203 C-188.52102788 325.3773218 -214.17119082 333.98046771 -240.63964844 338.578125 C-242.90706775 338.98338985 -245.15874845 339.43886915 -247.4140625 339.90625 C-257.64141841 341.90534576 -267.73394737 342.26530301 -278.125 342.25 C-278.80641052 342.24931519 -279.48782104 342.24863037 -280.18988037 342.2479248 C-291.79062169 342.20937831 -291.79062169 342.20937831 -293 341 C-297.52657685 307.72800809 -296.08323244 273.56482575 -288 241 C-287.78859375 240.01128906 -287.5771875 239.02257812 -287.359375 238.00390625 C-281.20368975 210.18494406 -267.40418122 182.7798387 -252 159 C-251.61875977 158.40767578 -251.23751953 157.81535156 -250.84472656 157.20507812 C-242.39366304 144.11648499 -232.96806826 131.97161686 -223 120 C-222.22398437 119.03707031 -221.44796875 118.07414062 -220.6484375 117.08203125 C-213.73794888 108.6409964 -206.12688588 100.91107726 -198.4375 93.1875 C-197.90697021 92.65179382 -197.37644043 92.11608765 -196.82983398 91.56414795 C-179.51534292 74.11670489 -179.51534292 74.11670489 -172.75170898 70.94604492 C-170.64118968 70.0643306 -170.64118968 70.0643306 -170 67 C-168.47216797 65.62475586 -168.47216797 65.62475586 -166.4921875 64.21484375 C-165.76040283 63.68922852 -165.02861816 63.16361328 -164.2746582 62.62207031 C-163.482771 62.06616211 -162.69088379 61.51025391 -161.875 60.9375 C-161.06184326 60.35967773 -160.24868652 59.78185547 -159.41088867 59.18652344 C-152.03887882 53.97292983 -144.59875142 48.87736702 -137 44 C-136.42813965 43.62955566 -135.8562793 43.25911133 -135.26708984 42.87744141 C-96.99529966 18.28421231 -45.86773064 0 0 0 Z " fill="#000000" transform="translate(915,26)"/>
</svg>
