<?xml version="1.0" encoding="UTF-8"?>
<svg version="1.1" xmlns="http://www.w3.org/2000/svg" width="330" height="265">
<path d="M0 0 C22.55164009 20.65641045 37.33155775 48.25551141 38.98046875 79.22412109 C40.27263971 111.56877536 29.73237555 140.91443087 7.89453125 164.59521484 C-13.36896656 187.08152387 -41.37604202 198.9751139 -72.203125 200.47412109 C-80.61981058 200.61425322 -88.75400581 199.77955914 -97.01953125 198.22412109 C-98.23898438 198.00240234 -99.4584375 197.78068359 -100.71484375 197.55224609 C-128.24445556 191.65701609 -153.8606204 174.07692869 -169.51953125 150.66162109 C-186.87903405 123.55322409 -193.25790017 92.91012582 -186.50683594 61.375 C-180.03826301 32.8238339 -162.54938032 6.5456466 -137.79101562 -9.40771484 C-126.61892004 -16.25830928 -114.71519515 -21.49790011 -102.01953125 -24.77587891 C-101.1996875 -24.98857422 -100.37984375 -25.20126953 -99.53515625 -25.42041016 C-64.96635957 -33.70500108 -26.54011402 -23.33810316 0 0 Z M-108.01953125 46.22412109 C-108.60117954 48.89393386 -108.60117954 48.89393386 -108.6965332 51.95239258 C-108.76079498 53.11817841 -108.82505676 54.28396423 -108.89126587 55.4850769 C-109.10953957 61.84793958 -109.1840715 68.20559976 -109.1875 74.57177734 C-109.1907233 76.00093111 -109.19408812 77.43008455 -109.19758606 78.85923767 C-109.20351465 81.82486742 -109.20543194 84.79046827 -109.20483398 87.75610352 C-109.20473142 91.55224825 -109.21850766 95.34820991 -109.23560619 99.14431095 C-109.2467139 102.08254349 -109.24875376 105.02073108 -109.24822426 107.95898247 C-109.24940144 109.35959963 -109.25380848 110.76021806 -109.26155663 112.16081429 C-109.27135344 114.11035876 -109.26721501 116.05995822 -109.26245117 118.00952148 C-109.26387619 119.11614639 -109.26530121 120.2227713 -109.26676941 121.3629303 C-109.02057896 124.21199637 -108.58939835 125.85607868 -107.01953125 128.22412109 C-104.12593392 129.67091976 -102.25150107 129.53264441 -99.01953125 129.22412109 C-96.30497089 128.09787512 -93.8417023 126.62102074 -91.33203125 125.09912109 C-90.01622969 124.32465531 -88.69980902 123.55124057 -87.3828125 122.77880859 C-86.34145142 122.16380493 -86.34145142 122.16380493 -85.27905273 121.53637695 C-77.74468498 117.16066364 -70.00873332 113.15736469 -62.26147461 109.17529297 C-57.57928945 106.76736917 -52.90966192 104.33579101 -48.24121094 101.90136719 C-46.24691865 100.86311408 -44.2505687 99.82879026 -42.25097656 98.80078125 C-39.97579041 97.62725946 -37.71472993 96.43084514 -35.45703125 95.22412109 C-34.81548096 94.89951904 -34.17393066 94.57491699 -33.51293945 94.24047852 C-30.4942875 92.59259907 -29.08033366 91.33646363 -27.4296875 88.28662109 C-26.90518275 84.37031895 -27.66489891 83.34391843 -30.01953125 80.22412109 C-32.79523934 78.3267587 -32.79523934 78.3267587 -36.09375 76.77099609 C-36.68962418 76.46964752 -37.28549835 76.16829895 -37.89942932 75.8578186 C-39.17095543 75.21650062 -40.44559582 74.58132604 -41.72302246 73.95184326 C-44.39931683 72.63296184 -47.06048683 71.28487698 -49.72250366 69.93746948 C-51.03820312 69.27158175 -52.35462607 68.60712154 -53.67178345 67.94412231 C-58.28114654 65.61936083 -62.80308121 63.18577502 -67.26953125 60.59912109 C-74.17268921 56.64386583 -81.17394772 52.8804817 -88.20703125 49.16162109 C-89.2959668 48.57622559 -90.38490234 47.99083008 -91.50683594 47.38769531 C-93.05032715 46.57776123 -93.05032715 46.57776123 -94.625 45.75146484 C-95.54434326 45.26411865 -96.46368652 44.77677246 -97.41088867 44.2746582 C-101.91533551 42.46065401 -104.96320018 42.2018624 -108.01953125 46.22412109 Z " fill="#2459A9" transform="translate(245.01953125,40.77587890625)"/>
</svg>
