<svg width="1171" height="490" viewBox="0 0 1171 490" fill="none" xmlns="http://www.w3.org/2000/svg">
<g id="Frame 228">
<g id="&#208;&#190;&#209;&#129;&#209;&#130;&#208;&#181;&#208;&#187;">
<path d="M826.616 490C818.887 490 812.203 488.356 806.564 485.069C800.958 481.748 796.629 477.132 793.578 471.221C790.526 465.277 789 458.387 789 450.55C789 442.646 790.526 435.739 793.578 429.828C796.629 423.884 800.958 419.269 806.564 415.981C812.203 412.66 818.887 411 826.616 411C834.345 411 841.012 412.66 846.618 415.981C852.257 419.269 856.603 423.884 859.654 429.828C862.706 435.739 864.232 442.646 864.232 450.55C864.232 458.387 862.706 465.277 859.654 471.221C856.603 477.132 852.257 481.748 846.618 485.069C841.012 488.356 834.345 490 826.616 490ZM826.715 473.562C830.232 473.562 833.167 472.566 835.522 470.574C837.878 468.548 839.652 465.792 840.846 462.305C842.074 458.818 842.687 454.85 842.687 450.4C842.687 445.951 842.074 441.982 840.846 438.496C839.652 435.009 837.878 432.253 835.522 430.227C833.167 428.201 830.232 427.189 826.715 427.189C823.166 427.189 820.181 428.201 817.759 430.227C815.371 432.253 813.563 435.009 812.336 438.496C811.142 441.982 810.545 445.951 810.545 450.4C810.545 454.85 811.142 458.818 812.336 462.305C813.563 465.792 815.371 468.548 817.759 470.574C820.181 472.566 823.166 473.562 826.715 473.562Z" fill="#4A4A4A"/>
<path d="M906.941 490C899.113 490 892.379 488.34 886.74 485.019C881.134 481.665 876.822 477.016 873.803 471.072C870.818 465.128 869.325 458.287 869.325 450.55C869.325 442.713 870.834 435.839 873.853 429.928C876.905 423.984 881.233 419.352 886.839 416.031C892.445 412.677 899.113 411 906.842 411C913.509 411 919.347 412.212 924.356 414.636C929.365 417.06 933.329 420.464 936.248 424.847C939.167 429.231 940.776 434.378 941.074 440.289H921.072C920.508 436.47 919.015 433.398 916.594 431.074C914.205 428.716 911.071 427.537 907.19 427.537C903.906 427.537 901.037 428.434 898.582 430.227C896.16 431.987 894.27 434.561 892.91 437.948C891.55 441.335 890.87 445.436 890.87 450.251C890.87 455.132 891.533 459.283 892.86 462.704C894.22 466.124 896.127 468.731 898.582 470.524C901.037 472.317 903.906 473.214 907.19 473.214C909.611 473.214 911.784 472.716 913.708 471.719C915.665 470.723 917.274 469.279 918.534 467.386C919.828 465.46 920.674 463.152 921.072 460.462H941.074C940.742 466.307 939.15 471.454 936.297 475.904C933.478 480.32 929.58 483.774 924.605 486.264C919.629 488.755 913.741 490 906.941 490Z" fill="#4A4A4A"/>
<path d="M943.829 428.683V411.996H1013.09V428.683H988.46V488.506H968.259V428.683H943.829Z" fill="#4A4A4A"/>
<path d="M1052.43 490C1044.57 490 1037.8 488.406 1032.13 485.218C1026.49 481.997 1022.14 477.448 1019.09 471.57C1016.04 465.659 1014.51 458.669 1014.51 450.6C1014.51 442.73 1016.04 435.822 1019.09 429.878C1022.14 423.934 1026.44 419.302 1031.98 415.981C1037.55 412.66 1044.09 411 1051.58 411C1056.62 411 1061.32 411.814 1065.66 413.441C1070.04 415.035 1073.86 417.442 1077.11 420.663C1080.39 423.884 1082.95 427.936 1084.77 432.817C1086.59 437.665 1087.51 443.344 1087.51 449.852V455.68H1022.97V442.53H1067.55C1067.55 439.475 1066.89 436.769 1065.56 434.411C1064.24 432.053 1062.4 430.21 1060.04 428.882C1057.72 427.521 1055.02 426.84 1051.93 426.84C1048.71 426.84 1045.86 427.587 1043.37 429.081C1040.92 430.542 1038.99 432.518 1037.6 435.009C1036.21 437.466 1035.49 440.206 1035.46 443.228V455.73C1035.46 459.516 1036.16 462.787 1037.55 465.543C1038.98 468.299 1040.98 470.424 1043.57 471.919C1046.16 473.413 1049.23 474.16 1052.78 474.16C1055.13 474.16 1057.29 473.828 1059.24 473.164C1061.2 472.5 1062.88 471.504 1064.27 470.175C1065.66 468.847 1066.72 467.22 1067.45 465.294L1087.06 466.589C1086.06 471.304 1084.02 475.422 1080.94 478.942C1077.89 482.429 1073.94 485.152 1069.1 487.111C1064.29 489.037 1058.73 490 1052.43 490Z" fill="#4A4A4A"/>
<path d="M1091.26 488.506L1091.16 471.67H1093.69C1095.49 471.67 1097.03 471.238 1098.32 470.375C1099.65 469.478 1100.74 468.033 1101.61 466.041C1102.47 464.049 1103.15 461.409 1103.65 458.121C1104.14 454.8 1104.47 450.716 1104.64 445.868L1105.88 411.996H1164V488.506H1143.8V428.683H1124.94L1123.75 452.044C1123.45 458.453 1122.67 463.966 1121.41 468.581C1120.18 473.197 1118.47 476.983 1116.28 479.938C1114.09 482.86 1111.46 485.019 1108.37 486.414C1105.29 487.808 1101.7 488.506 1097.62 488.506H1091.26Z" fill="#4A4A4A"/>
</g>
<g id="&#208;&#162;&#208;&#184; &#208;&#184;&#208;&#185;">
<path d="M89.662 347.693C85.8071 347.693 83.8797 345.763 83.8797 341.903V90.0446H6.7823C2.92743 90.0446 1 88.1146 1 84.2548V37.4535C1 33.5936 2.92743 31.6637 6.7823 31.6637H227.474C231.328 31.6637 233.256 33.5936 233.256 37.4535V84.2548C233.256 88.1146 231.328 90.0446 227.474 90.0446H150.858V341.903C150.858 345.763 148.77 347.693 144.594 347.693H89.662Z" fill="#4A4A4A"/>
<path d="M305.851 353C285.292 353 269.711 346.728 259.111 334.183C248.51 321.638 243.209 302.339 243.209 276.285V115.134C243.209 110.952 245.297 108.862 249.473 108.862H302.478C306.333 108.862 308.26 110.952 308.26 115.134V263.257C308.26 274.837 310.188 283.361 314.042 288.829C318.219 293.976 324.322 296.549 332.353 296.549C341.669 296.549 350.824 293.654 359.819 287.864C369.135 281.753 378.611 273.711 388.249 263.74L392.585 304.751C384.876 313.758 376.523 321.96 367.529 329.358C358.855 336.435 349.379 342.224 339.099 346.728C328.819 350.909 317.737 353 305.851 353ZM395.958 347.693C392.425 347.693 390.176 345.924 389.212 342.385C388.249 336.917 387.446 330.806 386.803 324.051C386.161 317.296 385.679 310.541 385.357 303.786L379.575 279.662V115.134C379.575 110.952 381.503 108.862 385.357 108.862H438.844C442.699 108.862 444.626 110.952 444.626 115.134V286.417C444.626 296.388 444.787 306.038 445.108 315.366C445.429 324.372 446.072 333.057 447.035 341.42C447.678 345.602 445.75 347.693 441.253 347.693H395.958Z" fill="#4A4A4A"/>
<path d="M776.002 353C755.442 353 739.862 346.728 729.261 334.183C718.661 321.638 713.36 302.339 713.36 276.285V115.134C713.36 110.952 715.448 108.862 719.624 108.862H772.629C776.484 108.862 778.411 110.952 778.411 115.134V263.257C778.411 274.837 780.338 283.361 784.193 288.829C788.369 293.976 794.473 296.549 802.504 296.549C811.82 296.549 820.975 293.654 829.97 287.864C839.286 281.753 848.762 273.711 858.399 263.74L862.736 304.751C855.026 313.758 846.674 321.96 837.68 329.358C829.006 336.435 819.53 342.224 809.25 346.728C798.97 350.909 787.887 353 776.002 353ZM866.109 347.693C862.576 347.693 860.327 345.924 859.363 342.385C858.399 336.917 857.596 330.806 856.954 324.051C856.311 317.296 855.83 310.541 855.508 303.786L849.726 279.662V115.134C849.726 110.952 851.653 108.862 855.508 108.862H908.995C912.849 108.862 914.777 110.952 914.777 115.134V286.417C914.777 296.388 914.938 306.038 915.259 315.366C915.58 324.372 916.223 333.057 917.186 341.42C917.829 345.602 915.901 347.693 911.404 347.693H866.109Z" fill="#4A4A4A"/>
<path d="M1028.7 353C1008.14 353 992.556 346.728 981.955 334.183C971.354 321.638 966.053 302.339 966.053 276.285V115.134C966.053 110.952 968.142 108.862 972.318 108.862H1025.32C1029.18 108.862 1031.1 110.952 1031.1 115.134V263.257C1031.1 274.837 1033.03 283.361 1036.89 288.829C1041.06 293.976 1047.17 296.549 1055.2 296.549C1064.51 296.549 1073.67 293.654 1082.66 287.864C1091.98 281.753 1101.46 273.711 1111.09 263.74L1115.43 304.751C1107.72 313.758 1099.37 321.96 1090.37 329.358C1081.7 336.435 1072.22 342.224 1061.94 346.728C1051.66 350.909 1040.58 353 1028.7 353ZM1118.8 347.693C1115.27 347.693 1113.02 345.924 1112.06 342.385C1111.09 336.917 1110.29 330.806 1109.65 324.051C1109 317.296 1108.52 310.541 1108.2 303.786L1102.42 279.662V115.134C1102.42 110.952 1104.35 108.862 1108.2 108.862H1161.69C1165.54 108.862 1167.47 110.952 1167.47 115.134V286.417C1167.47 296.388 1167.63 306.038 1167.95 315.366C1168.27 324.372 1168.92 333.057 1169.88 341.42C1170.52 345.602 1168.59 347.693 1164.1 347.693H1118.8ZM1067.24 80.3949C1052.47 80.3949 1039.94 77.4999 1029.66 71.7101C1019.38 65.9202 1011.83 60.6129 1007.01 55.788C1005.73 54.5014 1005.08 52.2498 1005.08 49.0332V15.2591C1005.08 12.6859 1005.73 11.0776 1007.01 10.4342C1008.3 9.79092 1009.74 10.4342 1011.35 12.3642C1017.45 17.5107 1025.32 22.6572 1034.96 27.8038C1044.6 32.6287 1055.36 35.0411 1067.24 35.0411C1079.45 35.0411 1090.21 32.6287 1099.53 27.8038C1109.17 22.6572 1116.88 17.5107 1122.66 12.3642C1124.58 10.1126 1126.03 9.46927 1126.99 10.4342C1128.28 11.0776 1128.92 12.6859 1128.92 15.2591V49.0332C1128.92 52.5714 1128.12 54.9839 1126.51 56.2705C1121.69 60.7737 1114.14 65.9202 1103.86 71.7101C1093.91 77.4999 1081.7 80.3949 1067.24 80.3949Z" fill="#4A4A4A"/>
</g>
<g id="Group 17">
<path id="Vector 27" d="M416.068 481.219L617.158 109.894C617.948 108.436 619.473 107.527 621.131 107.527H660.442C663.827 107.527 666.01 111.114 664.454 114.122L472.313 485.447C471.537 486.947 469.989 487.888 468.3 487.888H420.041C416.617 487.888 414.438 484.229 416.068 481.219Z" fill="#0DA37A" stroke="#0DA37A"/>
<path id="Vector 29" d="M778.719 480.913L570.181 109.588C569.293 108.006 567.62 107.027 565.806 107.027H524.712C520.919 107.027 518.497 111.075 520.291 114.418L719.548 485.743C720.422 487.372 722.121 488.388 723.97 488.388H774.344C778.181 488.388 780.598 484.258 778.719 480.913Z" fill="#0C7A5C"/>
<path id="Vector 28" d="M496.091 107.527H533.607L743.987 487.888H692.333C690.659 487.888 689.121 486.962 688.339 485.481L492.097 114.156L491.659 114.387L492.097 114.156C490.507 111.147 492.688 107.527 496.091 107.527Z" fill="#0DA37A" stroke="#0DA37A"/>
</g>
</g>
</svg>
