<svg width="365" height="382" viewBox="0 0 365 382" fill="none" xmlns="http://www.w3.org/2000/svg">
<path d="M1.06799 374.219L202.158 2.894C202.948 1.436 204.473 0.527 206.131 0.527H245.442C248.827 0.527 251.01 4.114 249.454 7.122L57.313 378.447C56.537 379.947 54.989 380.888 53.3 380.888H5.04098C1.61698 380.888 -0.562008 377.229 1.06799 374.219Z" fill="#0DA37A" stroke="#0DA37A"/>
<path d="M363.719 373.913L155.181 2.588C154.293 1.006 152.62 0.0270004 150.806 0.0270004H109.712C105.919 0.0270004 103.497 4.075 105.291 7.418L304.548 378.743C305.422 380.372 307.121 381.388 308.97 381.388H359.344C363.181 381.388 365.598 377.258 363.719 373.913Z" fill="#0C7A5C"/>
<path d="M81.091 0.527H118.607L328.987 380.888H277.333C275.659 380.888 274.121 379.962 273.339 378.481L77.097 7.156C75.507 4.147 77.688 0.527 81.091 0.527Z" fill="#0DA37A"/>
<path d="M77.097 7.156L273.339 378.481C274.121 379.962 275.659 380.888 277.333 380.888H328.987L118.607 0.527H81.091C77.688 0.527 75.507 4.147 77.097 7.156ZM77.097 7.156L76.659 7.387" stroke="#0DA37A"/>
</svg>
